<?xml version="1.0" standalone="no"?>
<!DOCTYPE svg PUBLIC "-//W3C//DTD SVG 20010904//EN"
 "http://www.w3.org/TR/2001/REC-SVG-20010904/DTD/svg10.dtd">
<svg version="1.0" xmlns="http://www.w3.org/2000/svg"
 width="125.000000pt" height="125.000000pt" viewBox="0 0 125.000000 125.000000"
 preserveAspectRatio="xMidYMid meet">

<g transform="translate(0.000000,125.000000) scale(0.100000,-0.100000)"
fill="#000000" stroke="none">
<path d="M723 791 c-73 -19 -110 -64 -120 -149 -17 -150 85 -233 247 -200 l65
13 3 48 c2 26 7 47 13 47 5 0 9 16 9 35 l0 35 -80 0 -80 0 0 -30 c0 -17 7 -33
18 -39 16 -10 16 -12 -2 -26 -14 -10 -24 -11 -37 -4 -16 8 -19 22 -19 93 0 64
4 87 16 97 20 16 48 1 52 -30 3 -18 10 -21 58 -21 l54 0 0 55 c0 49 -3 57 -24
65 -37 14 -137 20 -173 11z"/>
<path d="M240 755 c0 -19 5 -35 10 -35 6 0 10 -42 10 -105 0 -63 -4 -105 -10
-105 -5 0 -10 -16 -10 -35 l0 -35 90 0 90 0 0 35 c0 24 -5 35 -15 35 -11 0
-15 11 -15 40 0 26 4 40 13 40 26 0 37 -25 37 -87 l0 -63 70 0 70 0 0 34 c0
19 -4 38 -10 41 -5 3 -10 19 -10 36 0 18 -7 33 -20 41 -19 12 -19 13 1 34 13
14 21 36 21 57 0 92 -27 107 -197 107 l-125 0 0 -35z m194 -57 c13 -21 -2 -51
-28 -56 -13 -3 -16 5 -16 38 0 33 3 41 16 38 9 -2 22 -11 28 -20z"/>
</g>
</svg>
